<svg id="visual" viewBox="0 0 540 960" width="540" height="960" xmlns="http://www.w3.org/2000/svg" xmlns:xlink="http://www.w3.org/1999/xlink" version="1.1"><rect x="0" y="0" width="540" height="960" fill="#f1f7fa"></rect><defs><linearGradient id="grad1_0" x1="0%" y1="0%" x2="100%" y2="100%"><stop offset="30%" stop-color="#fbae3c" stop-opacity="1"></stop><stop offset="70%" stop-color="#fbae3c" stop-opacity="1"></stop></linearGradient></defs><defs><linearGradient id="grad1_1" x1="0%" y1="0%" x2="100%" y2="100%"><stop offset="30%" stop-color="#fbae3c" stop-opacity="1"></stop><stop offset="70%" stop-color="#f1f7fa" stop-opacity="1"></stop></linearGradient></defs><defs><linearGradient id="grad2_0" x1="0%" y1="0%" x2="100%" y2="100%"><stop offset="30%" stop-color="#fbae3c" stop-opacity="1"></stop><stop offset="70%" stop-color="#fbae3c" stop-opacity="1"></stop></linearGradient></defs><defs><linearGradient id="grad2_1" x1="0%" y1="0%" x2="100%" y2="100%"><stop offset="30%" stop-color="#f1f7fa" stop-opacity="1"></stop><stop offset="70%" stop-color="#fbae3c" stop-opacity="1"></stop></linearGradient></defs><g transform="translate(540, 0)"><path d="M0 351C-40.9 334.2 -81.8 317.4 -125.5 303C-169.2 288.7 -215.7 276.8 -248.2 248.2C-280.7 219.6 -299.3 174.3 -314.1 130.1C-328.9 86 -340 43 -351 0L0 0Z" fill="#9feabc"></path><path d="M0 175.5C-20.5 167.1 -40.9 158.7 -62.8 151.5C-84.6 144.3 -107.8 138.4 -124.1 124.1C-140.4 109.8 -149.7 87.1 -157.1 65.1C-164.5 43 -170 21.5 -175.5 0L0 0Z" fill="#fbae3c"></path></g><g transform="translate(0, 960)"><path d="M0 -351C40.2 -329.5 80.5 -308 120.5 -291C160.6 -274 200.6 -261.4 236.9 -236.9C273.2 -212.3 305.9 -175.8 324.3 -134.3C342.7 -92.8 346.8 -46.4 351 0L0 0Z" fill="#9feabc"></path><path d="M0 -175.5C20.1 -164.8 40.2 -154 60.3 -145.5C80.3 -137 100.3 -130.7 118.4 -118.4C136.6 -106.2 152.9 -87.9 162.1 -67.2C171.3 -46.4 173.4 -23.2 175.5 0L0 0Z" fill="#fbae3c"></path></g></svg>