<svg id="visual" viewBox="0 0 540 960" width="540" height="960" xmlns="http://www.w3.org/2000/svg" xmlns:xlink="http://www.w3.org/1999/xlink" version="1.1"><rect x="0" y="0" width="540" height="960" fill="#f6f7f7"></rect><defs><linearGradient id="grad1_0" x1="0%" y1="0%" x2="100%" y2="100%"><stop offset="30%" stop-color="#f6f7f7" stop-opacity="1"></stop><stop offset="70%" stop-color="#f6f7f7" stop-opacity="1"></stop></linearGradient></defs><defs><linearGradient id="grad2_0" x1="0%" y1="0%" x2="100%" y2="100%"><stop offset="30%" stop-color="#f6f7f7" stop-opacity="1"></stop><stop offset="70%" stop-color="#f6f7f7" stop-opacity="1"></stop></linearGradient></defs><g transform="translate(540, 0)"><path d="M0 324C-28.5 322.9 -56.9 321.8 -83.9 313C-110.8 304.1 -136.3 287.4 -153.5 265.9C-170.7 244.3 -179.8 218 -201.5 201.5C-223.3 185.1 -257.7 178.6 -277.1 160C-296.5 141.4 -300.9 110.7 -306.2 82C-311.5 53.4 -317.8 26.7 -324 0L0 0Z" fill="#FBAE3C"></path></g><g transform="translate(0, 960)"><path d="M0 -324C26.7 -317.5 53.4 -310.9 81.8 -305.2C110.2 -299.5 140.3 -294.7 160 -277.1C179.7 -259.6 189.1 -229.4 210 -210C230.9 -190.6 263.4 -182 280.6 -162C297.8 -142 299.6 -110.4 304.3 -81.5C308.9 -52.6 316.5 -26.3 324 0L0 0Z" fill="#FBAE3C"></path></g></svg>