<svg id="visual" viewBox="0 0 540 960" width="540" height="960" xmlns="http://www.w3.org/2000/svg" xmlns:xlink="http://www.w3.org/1999/xlink" version="1.1"><rect x="0" y="0" width="540" height="960" fill="#fafafa"></rect><defs><linearGradient id="grad1_0" x1="0%" y1="0%" x2="100%" y2="100%"><stop offset="30%" stop-color="#009473" stop-opacity="1"></stop><stop offset="70%" stop-color="#009473" stop-opacity="1"></stop></linearGradient></defs><defs><linearGradient id="grad1_1" x1="0%" y1="0%" x2="100%" y2="100%"><stop offset="30%" stop-color="#009473" stop-opacity="1"></stop><stop offset="70%" stop-color="#fafafa" stop-opacity="1"></stop></linearGradient></defs><defs><linearGradient id="grad2_0" x1="0%" y1="0%" x2="100%" y2="100%"><stop offset="30%" stop-color="#009473" stop-opacity="1"></stop><stop offset="70%" stop-color="#009473" stop-opacity="1"></stop></linearGradient></defs><defs><linearGradient id="grad2_1" x1="0%" y1="0%" x2="100%" y2="100%"><stop offset="30%" stop-color="#fafafa" stop-opacity="1"></stop><stop offset="70%" stop-color="#009473" stop-opacity="1"></stop></linearGradient></defs><g transform="translate(540, 0)"><path d="M0 297C-41.2 295.9 -82.5 294.7 -113.7 274.4C-144.8 254.1 -165.9 214.5 -181.7 181.7C-197.5 148.9 -208 122.9 -226.4 93.8C-244.7 64.6 -270.8 32.3 -297 0L0 0Z" fill="#93c7b4"></path><path d="M0 148.5C-20.6 147.9 -41.2 147.4 -56.8 137.2C-72.4 127 -83 107.3 -90.9 90.9C-98.8 74.5 -104 61.5 -113.2 46.9C-122.3 32.3 -135.4 16.1 -148.5 0L0 0Z" fill="#009473"></path></g><g transform="translate(0, 960)"><path d="M0 -297C28.8 -270.3 57.6 -243.6 96.8 -233.7C136.1 -223.9 185.8 -230.9 210 -210C234.2 -189.1 232.7 -140.3 243 -100.6C253.2 -61 275.1 -30.5 297 0L0 0Z" fill="#93c7b4"></path><path d="M0 -148.5C14.4 -135.1 28.8 -121.8 48.4 -116.9C68 -111.9 92.9 -115.5 105 -105C117.1 -94.6 116.4 -70.1 121.5 -50.3C126.6 -30.5 137.6 -15.2 148.5 0L0 0Z" fill="#009473"></path></g></svg>